<svg xmlns="http://www.w3.org/2000/svg" viewBox="0 0 400 400"><defs><style>.cls-1,.cls-2{fill:#e3e4ea;}.cls-2{font-size:51.61px;font-family:Calibri-Bold, Calibri;font-weight:700;letter-spacing:0.22em;}</style></defs><title>DanGlChris_400x400 copie</title><g id="Calque_7" data-name="Calque 7"><path class="cls-1" d="M218.58,302.33a95,95,0,0,1-25.8,0l-1.53.19a92.91,92.91,0,0,1-97.39-57.11H89a103.26,103.26,0,0,0,97.09,68.12,101.78,101.78,0,0,0,12.9-.8,99.93,99.93,0,0,0,12.9-2.46,101.7,101.7,0,0,0,19.24-7.06,104.43,104.43,0,0,0,16.31-9.88A92.43,92.43,0,0,1,218.58,302.33Z"/><path class="cls-1" d="M212.9,86.47a101.9,101.9,0,0,0-12.9.8,99.93,99.93,0,0,0-12.9,2.46,101.6,101.6,0,0,0-19.23,7.06,102.87,102.87,0,0,0-16.36,9.92,91.85,91.85,0,0,1,28.88-9,93.93,93.93,0,0,1,25.8,0c.51-.08,1-.14,1.52-.2a92.91,92.91,0,0,1,104.07,86h4.13A103.2,103.2,0,0,0,212.9,86.47Z"/><path class="cls-1" d="M291.69,245.41a92.84,92.84,0,0,1-73.11,56.92,95,95,0,0,1-25.8,0c-.92-.14-1.84-.27-2.75-.44a93,93,0,0,1-70.37-56.48h-4.87a103.47,103.47,0,0,0,49.44,56.48,103.23,103.23,0,0,0,109-8.56A103.48,103.48,0,0,0,309,245.41Zm-57-147.3a103.19,103.19,0,0,0-109,8.6,103.08,103.08,0,0,0-41.62,76.78h16.52a92.84,92.84,0,0,1,50.9-76.78,91.85,91.85,0,0,1,28.88-9,93.93,93.93,0,0,1,25.8,0c.92.13,1.83.26,2.74.43A92.93,92.93,0,0,1,286,183.49h4.13A103.18,103.18,0,0,0,234.73,98.11Z"/><text class="cls-2" transform="translate(24.95 227.78)">DanGlChris</text><circle class="cls-1" cx="59.27" cy="167.22" r="15.48"/><circle class="cls-1" cx="295.09" cy="303.29" r="7.74"/><circle class="cls-1" cx="103.88" cy="97.74" r="7.74"/><circle class="cls-1" cx="324.08" cy="274.09" r="15.48"/><circle class="cls-1" cx="78.06" cy="124.81" r="11.19"/></g></svg>